Coordinates
version=1
nRows=10
nColumns=33
inDegrees=yes

Units are S.I. units (second, meters, Newtons, ...)
Angles are in degrees.

endheader
time	ground_thorax_rot_x	ground_thorax_rot_y	ground_thorax_rot_z	ground_thorax_tx	ground_thorax_ty	ground_thorax_tz	clav_prot_r	clav_elev_r	scapula_abduction_r	scapula_elevation_r	scapula_upward_rot_r	scapula_winging_r	shoulder_elv_r	plane_of_elev_r	axial_rot_r	elbow_flexion_r	pro_sup_r	wrist_flex_r	wrist_dev_r	clav_prot_l	clav_elev_l	scapula_abduction_l	scapula_elevation_l	scapula_upward_rot_l	scapula_winging_l	shoulder_elv_l	plane_of_elev_l	axial_rot_l	elbow_flexion_l	pro_sup_l	wrist_flex_l	wrist_dev_l
      6.05000000	    -26.87390232	    -32.89152678	     46.61081943	    -58.99585205	    841.91281755	    -45.26353550	     27.75147500	    -45.00000000	     41.61526908	    -45.00000000	    -45.00000000	  -2625.25179479	  -2262.64219654	    157.64286553	     28.46672773	   3239.31165905	   -196.16788815	     12.78355286	     14.41652176	     -0.35681207	     33.02273009	    -32.84025888	    -45.00000000	    -45.00000000	  -3150.90837730	  -2966.76346864	    132.97628723	   -105.45144440	    348.76030634	     35.70328043	     14.38993449	    -16.77246710
      6.06000000	    -26.94832621	    -32.81213422	     46.34460062	    -60.49810435	    842.86135240	    -45.44698102	     27.66524659	    -45.00000000	     41.72383502	    -45.00000000	    -45.00000000	  -2625.28655137	  -2262.55984804	    157.71124399	     28.53273192	   3239.23193415	   -196.32405634	     12.83060938	     14.45287934	     -0.29262392	     33.03480181	    -32.77766686	    -45.00000000	    -45.00000000	  -3150.95972202	  -2966.75595058	    133.05186085	   -105.65656664	    348.78144956	     35.61149271	     14.38330710	    -16.79868843
      6.07000000	    -27.09229422	    -32.69248877	     46.05631411	    -61.97522355	    843.75917048	    -45.63042357	     27.67442672	    -45.00000000	     41.69219920	    -45.00000000	    -45.00000000	  -2625.38809044	  -2262.51162839	    157.65000808	     28.61445206	   3239.25799888	   -196.49375580	     12.90852424	     14.47360979	     -0.36549807	     33.07268675	    -32.88018363	    -45.00000000	    -45.00000000	  -3150.82966704	  -2966.77210318	    133.02402469	   -105.82972704	    348.73983955	     35.53539028	     14.40778811	    -16.86486210
      6.08000000	    -27.23290884	    -32.56613318	     45.75736892	    -63.42863195	    844.60729187	    -45.81327814	     27.61966014	    -45.00000000	     41.72481624	    -45.00000000	    -45.00000000	  -2625.45898288	  -2262.46422443	    157.69137967	     28.69675698	   3239.19423136	   -196.64476633	     12.95992849	     14.52805222	     -0.31711710	     33.08227295	    -32.89228797	    -45.00000000	    -45.00000000	  -3150.82852934	  -2966.74324286	    133.04104279	   -105.99142998	    348.75080206	     35.45801373	     14.43508748	    -16.92906630
      6.09000000	    -27.33747441	    -32.45972085	     45.52326065	    -64.85151180	    845.40177513	    -45.99380856	     27.60462749	    -45.00000000	     41.70052445	    -45.00000000	    -45.00000000	  -2625.54600118	  -2262.41862428	    157.68968087	     28.77430719	   3239.21475735	   -196.81427420	     13.03344007	     14.53576749	     -0.37850488	     33.11798866	    -32.95875133	    -45.00000000	    -45.00000000	  -3150.77008025	  -2966.75621654	    133.04496540	   -106.12130420	    348.69341354	     35.37803505	     14.43017231	    -16.96279748
      6.10000000	    -27.42970062	    -32.36675462	     45.26768113	    -66.25007741	    846.14431799	    -46.17098371	     27.57918763	    -45.00000000	     41.71246448	    -45.00000000	    -45.00000000	  -2625.59940231	  -2262.33899340	    157.70638008	     28.89122724	   3239.17982025	   -196.97999438	     13.07508610	     14.57074468	     -0.34221009	     33.11746660	    -32.96958571	    -45.00000000	    -45.00000000	  -3150.75392727	  -2966.72027025	    133.09622973	   -106.25065832	    348.66867785	     35.27226735	     14.47548928	    -17.02437606
      6.11000000	    -27.64337142	    -32.06913568	     44.86593278	    -67.63005101	    846.83686931	    -46.34383561	     27.56749186	    -45.00000000	     41.73338248	    -45.00000000	    -45.00000000	  -2625.83975294	  -2262.32853342	    157.69774016	     29.00393296	   3239.03223662	   -197.15255229	     13.21750840	     14.66518835	     -0.44688376	     33.17178870	    -33.08378019	    -45.00000000	    -45.00000000	  -3150.68631636	  -2966.66381142	    132.90931883	   -106.37069661	    348.61323811	     35.15239617	     14.47783294	    -17.07816306
      6.12000000	    -27.56306678	    -32.18485980	     44.86154881	    -68.99771425	    847.48251892	    -46.51151565	     27.48146148	    -45.00000000	     41.64192080	    -45.00000000	    -45.00000000	  -2625.62959133	  -2262.15276861	    157.83230179	     28.99757167	   3239.25209437	   -197.35968803	     13.14790040	     14.55468303	     -0.28025220	     33.16603383	    -33.04918010	    -45.00000000	    -45.00000000	  -3150.76579798	  -2966.71566078	    133.23284412	   -106.42206119	    348.52823402	     35.01577756	     14.52434129	    -17.08811357
      6.13000000	    -27.70566047	    -32.07526350	     44.55579251	    -70.35831006	    848.08632964	    -46.67361210	     27.55549267	    -45.00000000	     41.64596893	    -45.00000000	    -45.00000000	  -2625.85295426	  -2262.22216066	    157.67325378	     29.32476816	   3239.23583104	   -197.58155849	     13.25821882	     14.62529652	     -0.47934795	     33.16221609	    -33.09402837	    -45.00000000	    -45.00000000	  -3150.58062632	  -2966.71012862	    133.13062989	   -106.48427664	    348.50469270	     34.82888545	     14.52463136	    -17.15073595
      6.14000000	    -27.87284963	    -31.87005128	     44.17475078	    -71.70660914	    848.64958178	    -46.82847427	     27.45618636	    -45.00000000	     41.74681248	    -45.00000000	    -45.00000000	  -2625.89217412	  -2262.20874516	    157.85860827	     29.44145984	   3239.07949746	   -197.80070294	     13.27009513	     14.74748164	     -0.35088489	     33.19831264	    -33.01693796	    -45.00000000	    -45.00000000	  -3150.67985218	  -2966.62353513	    133.06774928	   -106.55197727	    348.58810426	     34.62755355	     14.57807751	    -17.25737806
